<?xml version="1.0" encoding="UTF-8" standalone="no"?><svg xmlns="http://www.w3.org/2000/svg" xmlns:xlink="http://www.w3.org/1999/xlink" contentScriptType="application/ecmascript" contentStyleType="text/css" height="463px" preserveAspectRatio="none" style="width:431px;height:463px;" version="1.1" viewBox="0 0 431 463" width="431px" zoomAndPan="magnify"><defs><filter height="300%" id="fz54qag3fgcwu" width="300%" x="-1" y="-1"><feGaussianBlur result="blurOut" stdDeviation="2.0"/><feColorMatrix in="blurOut" result="blurOut2" type="matrix" values="0 0 0 0 0 0 0 0 0 0 0 0 0 0 0 0 0 0 .4 0"/><feOffset dx="4.0" dy="4.0" in="blurOut2" result="blurOut3"/><feBlend in="SourceGraphic" in2="blurOut3" mode="normal"/></filter></defs><g><text fill="#000000" font-family="sans-serif" font-size="18" lengthAdjust="spacingAndGlyphs" textLength="210" x="84.5" y="26.708">Simple Animal Kingdom</text><rect fill="#FEFECE" filter="url(#fz54qag3fgcwu)" height="33.9688" rx="12.5" ry="12.5" style="stroke: #A80036; stroke-width: 1.5;" width="61" x="10" y="229.8438"/><text fill="#000000" font-family="sans-serif" font-size="12" lengthAdjust="spacingAndGlyphs" textLength="41" x="20" y="250.9824">Animal</text><rect fill="#FEFECE" filter="url(#fz54qag3fgcwu)" height="33.9688" rx="12.5" ry="12.5" style="stroke: #A80036; stroke-width: 1.5;" width="45" x="121" y="94.9219"/><text fill="#000000" font-family="sans-serif" font-size="12" lengthAdjust="spacingAndGlyphs" textLength="25" x="131" y="116.0605">Fish</text><rect fill="#FEFECE" filter="url(#fz54qag3fgcwu)" height="33.9688" rx="12.5" ry="12.5" style="stroke: #A80036; stroke-width: 1.5;" width="51" x="216" y="40.9531"/><text fill="#000000" font-family="sans-serif" font-size="12" lengthAdjust="spacingAndGlyphs" textLength="31" x="226" y="62.0918">Tuna</text><path d="M166,111.9063 L176,111.9063 C191,111.9063 191,57.9375 206,57.9375 L216,57.9375 " fill="none" style="stroke: #A80036; stroke-width: 1.0;"/><rect fill="#FEFECE" filter="url(#fz54qag3fgcwu)" height="33.9688" rx="12.5" ry="12.5" style="stroke: #A80036; stroke-width: 1.5;" width="78" x="216" y="94.9219"/><text fill="#000000" font-family="sans-serif" font-size="12" lengthAdjust="spacingAndGlyphs" textLength="58" x="226" y="116.0605">Sting Ray</text><path d="M166,111.9063 L176,111.9063 C191,111.9063 191,111.9063 206,111.9063 L216,111.9063 " fill="none" style="stroke: #A80036; stroke-width: 1.0;"/><rect fill="#FEFECE" filter="url(#fz54qag3fgcwu)" height="33.9688" rx="12.5" ry="12.5" style="stroke: #A80036; stroke-width: 1.5;" width="56" x="216" y="148.8906"/><text fill="#000000" font-family="sans-serif" font-size="12" lengthAdjust="spacingAndGlyphs" textLength="36" x="226" y="170.0293">Shark</text><path d="M166,111.9063 L176,111.9063 C191,111.9063 191,165.875 206,165.875 L216,165.875 " fill="none" style="stroke: #A80036; stroke-width: 1.0;"/><path d="M71,246.8281 L81,246.8281 C96,246.8281 96,111.9063 111,111.9063 L121,111.9063 " fill="none" style="stroke: #A80036; stroke-width: 1.0;"/><rect fill="#FEFECE" filter="url(#fz54qag3fgcwu)" height="33.9688" rx="12.5" ry="12.5" style="stroke: #A80036; stroke-width: 1.5;" width="71" x="121" y="256.8281"/><text fill="#000000" font-family="sans-serif" font-size="12" lengthAdjust="spacingAndGlyphs" textLength="51" x="131" y="277.9668">Mammal</text><rect fill="#FEFECE" filter="url(#fz54qag3fgcwu)" height="33.9688" rx="12.5" ry="12.5" style="stroke: #A80036; stroke-width: 1.5;" width="45" x="242" y="202.8594"/><text fill="#000000" font-family="sans-serif" font-size="12" lengthAdjust="spacingAndGlyphs" textLength="25" x="252" y="223.998">Dog</text><path d="M192,273.8125 L202,273.8125 C217,273.8125 217,219.8438 232,219.8438 L242,219.8438 " fill="none" style="stroke: #A80036; stroke-width: 1.0;"/><rect fill="#FEFECE" filter="url(#fz54qag3fgcwu)" height="33.9688" rx="12.5" ry="12.5" style="stroke: #A80036; stroke-width: 1.5;" width="41" x="242" y="256.8281"/><text fill="#000000" font-family="sans-serif" font-size="12" lengthAdjust="spacingAndGlyphs" textLength="21" x="252" y="277.9668">Cat</text><path d="M192,273.8125 L202,273.8125 C217,273.8125 217,273.8125 232,273.8125 L242,273.8125 " fill="none" style="stroke: #A80036; stroke-width: 1.0;"/><rect fill="#FEFECE" filter="url(#fz54qag3fgcwu)" height="33.9688" rx="12.5" ry="12.5" style="stroke: #A80036; stroke-width: 1.5;" width="58" x="242" y="310.7969"/><text fill="#000000" font-family="sans-serif" font-size="12" lengthAdjust="spacingAndGlyphs" textLength="38" x="252" y="331.9355">Whale</text><text fill="#000000" font-family="sans-serif" font-size="12" lengthAdjust="spacingAndGlyphs" textLength="66" x="353" y="323.9512">Humpback</text><path d="M300,327.7813 L310,327.7813 C325,327.7813 325,319.7969 340,319.7969 L350,319.7969 " fill="none" style="stroke: #A80036; stroke-width: 1.0;"/><text fill="#000000" font-family="sans-serif" font-size="12" lengthAdjust="spacingAndGlyphs" textLength="29" x="353" y="339.9199">Orca</text><path d="M300,327.7813 L310,327.7813 C325,327.7813 325,335.7656 340,335.7656 L350,335.7656 " fill="none" style="stroke: #A80036; stroke-width: 1.0;"/><path d="M192,273.8125 L202,273.8125 C217,273.8125 217,327.7813 232,327.7813 L242,327.7813 " fill="none" style="stroke: #A80036; stroke-width: 1.0;"/><path d="M71,246.8281 L81,246.8281 C96,246.8281 96,273.8125 111,273.8125 L121,273.8125 " fill="none" style="stroke: #A80036; stroke-width: 1.0;"/><rect fill="#FEFECE" filter="url(#fz54qag3fgcwu)" height="33.9688" rx="12.5" ry="12.5" style="stroke: #A80036; stroke-width: 1.5;" width="63" x="121" y="391.75"/><text fill="#000000" font-family="sans-serif" font-size="12" lengthAdjust="spacingAndGlyphs" textLength="43" x="131" y="412.8887">Reptile</text><rect fill="#FEFECE" filter="url(#fz54qag3fgcwu)" height="33.9688" rx="12.5" ry="12.5" style="stroke: #A80036; stroke-width: 1.5;" width="55" x="234" y="364.7656"/><text fill="#000000" font-family="sans-serif" font-size="12" lengthAdjust="spacingAndGlyphs" textLength="35" x="244" y="385.9043">Lizard</text><path d="M184,408.7344 L194,408.7344 C209,408.7344 209,381.75 224,381.75 L234,381.75 " fill="none" style="stroke: #A80036; stroke-width: 1.0;"/><rect fill="#FEFECE" filter="url(#fz54qag3fgcwu)" height="33.9688" rx="12.5" ry="12.5" style="stroke: #A80036; stroke-width: 1.5;" width="120" x="234" y="418.7344"/><text fill="#000000" font-family="sans-serif" font-size="12" lengthAdjust="spacingAndGlyphs" textLength="100" x="244" y="439.873">Komodo Dragon</text><path d="M184,408.7344 L194,408.7344 C209,408.7344 209,435.7188 224,435.7188 L234,435.7188 " fill="none" style="stroke: #A80036; stroke-width: 1.0;"/><path d="M71,246.8281 L81,246.8281 C96,246.8281 96,408.7344 111,408.7344 L121,408.7344 " fill="none" style="stroke: #A80036; stroke-width: 1.0;"/><!--
--></g></svg>